<svg width="147" height="157" viewBox="0 0 147 157" fill="none" xmlns="http://www.w3.org/2000/svg">
<g filter="url(#filter0_f_1803_2206)">
<path d="M73.6518 25.2956C61.4459 41.8679 59.3293 64.4847 70.0967 83.1343C80.864 101.784 101.509 111.259 121.964 108.975C117.615 114.88 111.984 120.018 105.199 123.935C79.373 138.846 46.5977 130.428 31.9937 105.133C17.3897 79.8381 26.4872 47.2449 52.3135 32.3341C59.0985 28.4167 66.3631 26.1096 73.6518 25.2956Z" fill="#FFEE94"/>
</g>
<g filter="url(#filter1_i_1803_2206)">
<path d="M116.164 61.1669C116.335 60.2003 116.424 59.2059 116.424 58.191C116.424 48.6967 108.628 41 99.0116 41C91.8623 41 85.7194 45.2537 83.0378 51.3374C80.8653 49.4856 78.0462 48.3676 74.9656 48.3676C68.0965 48.3676 62.528 53.9263 62.528 60.7833C62.528 61.1652 62.5453 61.543 62.5791 61.916C59.2752 63.5137 57.0002 66.8662 57.0002 70.7432C57.0002 76.1686 61.455 80.5667 66.9503 80.5667H113.937C119.432 80.5667 123.887 76.1686 123.887 70.7432C123.887 66.074 120.587 62.1656 116.164 61.1669Z" fill="url(#paint0_linear_1803_2206)"/>
</g>
<g filter="url(#filter2_i_1803_2206)">
<path d="M72.5135 32.2791C61.3715 47.4069 59.4395 68.0522 69.2682 85.0762C79.097 102.1 97.9424 110.75 116.614 108.664C112.644 114.055 107.505 118.745 101.311 122.32C77.736 135.932 47.8177 128.247 34.4866 105.157C21.1556 82.0673 29.46 52.3151 53.0352 38.704C59.2287 35.1282 65.8601 33.0221 72.5135 32.2791Z" fill="url(#paint1_linear_1803_2206)"/>
</g>
<g filter="url(#filter3_i_1803_2206)">
<path d="M64.3498 113.221C64.5206 112.254 64.6097 111.26 64.6097 110.245C64.6097 100.751 56.8138 93.0542 47.1971 93.0542C40.0479 93.0542 33.905 97.3079 31.2233 103.392C29.0508 101.54 26.2318 100.422 23.1511 100.422C16.282 100.422 10.7136 105.981 10.7136 112.838C10.7136 113.219 10.7308 113.597 10.7646 113.97C7.46071 115.568 5.18574 118.92 5.18574 122.797C5.18574 128.223 9.64054 132.621 15.1358 132.621H62.1222C67.6175 132.621 72.0723 128.223 72.0723 122.797C72.0723 118.128 68.7726 114.22 64.3498 113.221Z" fill="url(#paint2_linear_1803_2206)"/>
</g>
<defs>
<filter id="filter0_f_1803_2206" x="0.0606995" y="0.330719" width="146.868" height="155.943" filterUnits="userSpaceOnUse" color-interpolation-filters="sRGB">
<feFlood flood-opacity="0" result="BackgroundImageFix"/>
<feBlend mode="normal" in="SourceGraphic" in2="BackgroundImageFix" result="shape"/>
<feGaussianBlur stdDeviation="12.4823" result="effect1_foregroundBlur_1803_2206"/>
</filter>
<filter id="filter1_i_1803_2206" x="57" y="41" width="66.8867" height="44.2772" filterUnits="userSpaceOnUse" color-interpolation-filters="sRGB">
<feFlood flood-opacity="0" result="BackgroundImageFix"/>
<feBlend mode="normal" in="SourceGraphic" in2="BackgroundImageFix" result="shape"/>
<feColorMatrix in="SourceAlpha" type="matrix" values="0 0 0 0 0 0 0 0 0 0 0 0 0 0 0 0 0 0 127 0" result="hardAlpha"/>
<feOffset dy="5.18135"/>
<feGaussianBlur stdDeviation="2.35516"/>
<feComposite in2="hardAlpha" operator="arithmetic" k2="-1" k3="1"/>
<feColorMatrix type="matrix" values="0 0 0 0 1 0 0 0 0 1 0 0 0 0 1 0 0 0 1 0"/>
<feBlend mode="normal" in2="shape" result="effect1_innerShadow_1803_2206"/>
</filter>
<filter id="filter2_i_1803_2206" x="28.126" y="32.2793" width="88.4883" height="98.6561" filterUnits="userSpaceOnUse" color-interpolation-filters="sRGB">
<feFlood flood-opacity="0" result="BackgroundImageFix"/>
<feBlend mode="normal" in="SourceGraphic" in2="BackgroundImageFix" result="shape"/>
<feColorMatrix in="SourceAlpha" type="matrix" values="0 0 0 0 0 0 0 0 0 0 0 0 0 0 0 0 0 0 127 0" result="hardAlpha"/>
<feOffset dy="1.88413"/>
<feGaussianBlur stdDeviation="1.88413"/>
<feComposite in2="hardAlpha" operator="arithmetic" k2="-1" k3="1"/>
<feColorMatrix type="matrix" values="0 0 0 0 1 0 0 0 0 1 0 0 0 0 1 0 0 0 0.55 0"/>
<feBlend mode="normal" in2="shape" result="effect1_innerShadow_1803_2206"/>
</filter>
<filter id="filter3_i_1803_2206" x="5.18555" y="93.0542" width="66.8867" height="44.2772" filterUnits="userSpaceOnUse" color-interpolation-filters="sRGB">
<feFlood flood-opacity="0" result="BackgroundImageFix"/>
<feBlend mode="normal" in="SourceGraphic" in2="BackgroundImageFix" result="shape"/>
<feColorMatrix in="SourceAlpha" type="matrix" values="0 0 0 0 0 0 0 0 0 0 0 0 0 0 0 0 0 0 127 0" result="hardAlpha"/>
<feOffset dy="5.18135"/>
<feGaussianBlur stdDeviation="2.35516"/>
<feComposite in2="hardAlpha" operator="arithmetic" k2="-1" k3="1"/>
<feColorMatrix type="matrix" values="0 0 0 0 1 0 0 0 0 1 0 0 0 0 1 0 0 0 1 0"/>
<feBlend mode="normal" in2="shape" result="effect1_innerShadow_1803_2206"/>
</filter>
<linearGradient id="paint0_linear_1803_2206" x1="61.2545" y1="77.0339" x2="128.561" y2="26.5236" gradientUnits="userSpaceOnUse">
<stop stop-color="white"/>
<stop offset="1" stop-color="white" stop-opacity="0.58"/>
</linearGradient>
<linearGradient id="paint1_linear_1803_2206" x1="74.9397" y1="24.2563" x2="57.2513" y2="131.359" gradientUnits="userSpaceOnUse">
<stop stop-color="#FFEE94"/>
<stop offset="1" stop-color="#FF9900"/>
</linearGradient>
<linearGradient id="paint2_linear_1803_2206" x1="9.44" y1="129.088" x2="76.7465" y2="78.5777" gradientUnits="userSpaceOnUse">
<stop stop-color="white"/>
<stop offset="1" stop-color="white" stop-opacity="0.58"/>
</linearGradient>
</defs>
</svg>
