<svg width="145" height="154" viewBox="0 0 145 154" fill="none" xmlns="http://www.w3.org/2000/svg">
<g filter="url(#filter0_f_1803_2189)">
<path d="M72.876 25.5141C61.0689 41.545 59.0215 63.4228 69.437 81.4631C79.8526 99.5033 99.8231 108.669 119.61 106.459C115.403 112.172 109.956 117.142 103.393 120.931C78.4103 135.354 46.7059 127.212 32.579 102.743C18.4521 78.2746 27.2523 46.7463 52.2349 32.3226C58.7982 28.5333 65.8254 26.3015 72.876 25.5141Z" fill="#FFEE94"/>
</g>
<g filter="url(#filter1_i_1803_2189)">
<path d="M71.7754 32.2693C60.9975 46.9028 59.1285 66.8737 68.6362 83.3414C78.1438 99.8091 96.3735 108.176 114.436 106.159C110.595 111.373 105.623 115.91 99.6322 119.369C76.8273 132.535 47.8864 125.102 34.9909 102.766C22.0955 80.4308 30.1286 51.6507 52.9335 38.4843C58.9247 35.0253 65.3394 32.9881 71.7754 32.2693Z" fill="url(#paint0_linear_1803_2189)"/>
</g>
<g filter="url(#filter2_i_1803_2189)">
<path d="M108.317 25.6587C103.364 27.8583 101.431 29.7172 99.6587 34.3173C98.2475 29.8593 96.5122 27.8708 91.0001 25.6587C96.6704 23.8113 98.2093 21.6726 99.6587 17C101.44 21.3065 102.54 23.6568 108.317 25.6587Z" fill="url(#paint1_linear_1803_2189)"/>
</g>
<g filter="url(#filter3_i_1803_2189)">
<path d="M32.7959 33.6387C27.8426 35.8383 25.9093 37.6971 24.1372 42.2973C22.726 37.8392 20.9907 35.8507 15.4786 33.6387C21.1489 31.7912 22.6878 29.6526 24.1372 24.98C25.9183 29.2865 27.0184 31.6368 32.7959 33.6387Z" fill="url(#paint2_linear_1803_2189)"/>
</g>
<g filter="url(#filter4_i_1803_2189)">
<path d="M133.317 89.6587C128.364 91.8583 126.431 93.7172 124.659 98.3173C123.248 93.8593 121.512 91.8708 116 89.6587C121.67 87.8113 123.209 85.6726 124.659 81C126.44 85.3065 127.54 87.6568 133.317 89.6587Z" fill="url(#paint3_linear_1803_2189)"/>
</g>
<defs>
<filter id="filter0_f_1803_2189" x="0.874176" y="0.549469" width="143.7" height="152.479" filterUnits="userSpaceOnUse" color-interpolation-filters="sRGB">
<feFlood flood-opacity="0" result="BackgroundImageFix"/>
<feBlend mode="normal" in="SourceGraphic" in2="BackgroundImageFix" result="shape"/>
<feGaussianBlur stdDeviation="12.4823" result="effect1_foregroundBlur_1803_2189"/>
</filter>
<filter id="filter1_i_1803_2189" x="28.8379" y="32.2695" width="85.5977" height="95.4945" filterUnits="userSpaceOnUse" color-interpolation-filters="sRGB">
<feFlood flood-opacity="0" result="BackgroundImageFix"/>
<feBlend mode="normal" in="SourceGraphic" in2="BackgroundImageFix" result="shape"/>
<feColorMatrix in="SourceAlpha" type="matrix" values="0 0 0 0 0 0 0 0 0 0 0 0 0 0 0 0 0 0 127 0" result="hardAlpha"/>
<feOffset dy="1.88413"/>
<feGaussianBlur stdDeviation="1.88413"/>
<feComposite in2="hardAlpha" operator="arithmetic" k2="-1" k3="1"/>
<feColorMatrix type="matrix" values="0 0 0 0 1 0 0 0 0 1 0 0 0 0 1 0 0 0 0.55 0"/>
<feBlend mode="normal" in2="shape" result="effect1_innerShadow_1803_2189"/>
</filter>
<filter id="filter2_i_1803_2189" x="91" y="17" width="17.3174" height="19.2015" filterUnits="userSpaceOnUse" color-interpolation-filters="sRGB">
<feFlood flood-opacity="0" result="BackgroundImageFix"/>
<feBlend mode="normal" in="SourceGraphic" in2="BackgroundImageFix" result="shape"/>
<feColorMatrix in="SourceAlpha" type="matrix" values="0 0 0 0 0 0 0 0 0 0 0 0 0 0 0 0 0 0 127 0" result="hardAlpha"/>
<feOffset dy="1.88413"/>
<feGaussianBlur stdDeviation="0.942064"/>
<feComposite in2="hardAlpha" operator="arithmetic" k2="-1" k3="1"/>
<feColorMatrix type="matrix" values="0 0 0 0 1 0 0 0 0 1 0 0 0 0 1 0 0 0 0.44 0"/>
<feBlend mode="normal" in2="shape" result="effect1_innerShadow_1803_2189"/>
</filter>
<filter id="filter3_i_1803_2189" x="15.4785" y="24.98" width="17.3174" height="19.2015" filterUnits="userSpaceOnUse" color-interpolation-filters="sRGB">
<feFlood flood-opacity="0" result="BackgroundImageFix"/>
<feBlend mode="normal" in="SourceGraphic" in2="BackgroundImageFix" result="shape"/>
<feColorMatrix in="SourceAlpha" type="matrix" values="0 0 0 0 0 0 0 0 0 0 0 0 0 0 0 0 0 0 127 0" result="hardAlpha"/>
<feOffset dy="1.88413"/>
<feGaussianBlur stdDeviation="0.942064"/>
<feComposite in2="hardAlpha" operator="arithmetic" k2="-1" k3="1"/>
<feColorMatrix type="matrix" values="0 0 0 0 1 0 0 0 0 1 0 0 0 0 1 0 0 0 0.44 0"/>
<feBlend mode="normal" in2="shape" result="effect1_innerShadow_1803_2189"/>
</filter>
<filter id="filter4_i_1803_2189" x="116" y="81" width="17.3174" height="19.2015" filterUnits="userSpaceOnUse" color-interpolation-filters="sRGB">
<feFlood flood-opacity="0" result="BackgroundImageFix"/>
<feBlend mode="normal" in="SourceGraphic" in2="BackgroundImageFix" result="shape"/>
<feColorMatrix in="SourceAlpha" type="matrix" values="0 0 0 0 0 0 0 0 0 0 0 0 0 0 0 0 0 0 127 0" result="hardAlpha"/>
<feOffset dy="1.88413"/>
<feGaussianBlur stdDeviation="0.942064"/>
<feComposite in2="hardAlpha" operator="arithmetic" k2="-1" k3="1"/>
<feColorMatrix type="matrix" values="0 0 0 0 1 0 0 0 0 1 0 0 0 0 1 0 0 0 0.44 0"/>
<feBlend mode="normal" in2="shape" result="effect1_innerShadow_1803_2189"/>
</filter>
<linearGradient id="paint0_linear_1803_2189" x1="74.1223" y1="24.5087" x2="57.0119" y2="128.113" gradientUnits="userSpaceOnUse">
<stop stop-color="#FFEE94"/>
<stop offset="1" stop-color="#FF9900"/>
</linearGradient>
<linearGradient id="paint1_linear_1803_2189" x1="97.1538" y1="35.1287" x2="105.303" y2="19.8274" gradientUnits="userSpaceOnUse">
<stop stop-color="#FF9900"/>
<stop offset="1" stop-color="#FFEE94"/>
</linearGradient>
<linearGradient id="paint2_linear_1803_2189" x1="21.6324" y1="43.1087" x2="29.782" y2="27.8074" gradientUnits="userSpaceOnUse">
<stop stop-color="#FF9900"/>
<stop offset="1" stop-color="#FFEE94"/>
</linearGradient>
<linearGradient id="paint3_linear_1803_2189" x1="122.154" y1="99.1287" x2="130.303" y2="83.8274" gradientUnits="userSpaceOnUse">
<stop stop-color="#FF9900"/>
<stop offset="1" stop-color="#FFEE94"/>
</linearGradient>
</defs>
</svg>
