<svg width="187" height="180" viewBox="0 0 187 180" fill="none" xmlns="http://www.w3.org/2000/svg">
<g filter="url(#filter0_f_1803_2234)">
<rect x="37" y="37" width="113.048" height="106.453" rx="44.277" fill="#FFEF9A"/>
</g>
<g filter="url(#filter1_i_1803_2234)">
<path d="M161.587 52.1669C161.758 51.2003 161.847 50.2059 161.847 49.191C161.847 39.6967 154.051 32 144.434 32C137.285 32 131.142 36.2537 128.461 42.3374C126.288 40.4856 123.469 39.3676 120.388 39.3676C113.519 39.3676 107.951 44.9263 107.951 51.7833C107.951 52.1652 107.968 52.543 108.002 52.916C104.698 54.5137 102.423 57.8662 102.423 61.7432C102.423 67.1686 106.878 71.5667 112.373 71.5667H159.36C164.855 71.5667 169.31 67.1686 169.31 61.7432C169.31 57.074 166.01 53.1656 161.587 52.1669Z" fill="url(#paint0_linear_1803_2234)"/>
</g>
<g filter="url(#filter2_i_1803_2234)">
<path d="M143.453 90.2266C143.453 118.062 121.098 140.627 93.5231 140.627C65.9479 140.627 43.5938 118.062 43.5938 90.2266C43.5938 62.3912 65.9479 39.8262 93.5231 39.8262C121.098 39.8262 143.453 62.3912 143.453 90.2266Z" fill="url(#paint1_linear_1803_2234)"/>
</g>
<g filter="url(#filter3_i_1803_2234)">
<path d="M87.1642 121.879C87.3351 120.913 87.4242 119.918 87.4242 118.903C87.4242 109.409 79.6283 101.712 70.0116 101.712C62.8623 101.712 56.7194 105.966 54.0378 112.05C51.8653 110.198 49.0462 109.08 45.9656 109.08C39.0965 109.08 33.528 114.639 33.528 121.496C33.528 121.878 33.5453 122.255 33.5791 122.628C30.2752 124.226 28.0002 127.579 28.0002 131.456C28.0002 136.881 32.455 141.279 37.9503 141.279H84.9367C90.4319 141.279 94.8867 136.881 94.8867 131.456C94.8867 126.786 91.587 122.878 87.1642 121.879Z" fill="url(#paint2_linear_1803_2234)"/>
</g>
<defs>
<filter id="filter0_f_1803_2234" x="0.730541" y="0.730541" width="185.587" height="178.992" filterUnits="userSpaceOnUse" color-interpolation-filters="sRGB">
<feFlood flood-opacity="0" result="BackgroundImageFix"/>
<feBlend mode="normal" in="SourceGraphic" in2="BackgroundImageFix" result="shape"/>
<feGaussianBlur stdDeviation="18.1347" result="effect1_foregroundBlur_1803_2234"/>
</filter>
<filter id="filter1_i_1803_2234" x="102.423" y="32" width="66.8867" height="44.2772" filterUnits="userSpaceOnUse" color-interpolation-filters="sRGB">
<feFlood flood-opacity="0" result="BackgroundImageFix"/>
<feBlend mode="normal" in="SourceGraphic" in2="BackgroundImageFix" result="shape"/>
<feColorMatrix in="SourceAlpha" type="matrix" values="0 0 0 0 0 0 0 0 0 0 0 0 0 0 0 0 0 0 127 0" result="hardAlpha"/>
<feOffset dy="5.18135"/>
<feGaussianBlur stdDeviation="2.35516"/>
<feComposite in2="hardAlpha" operator="arithmetic" k2="-1" k3="1"/>
<feColorMatrix type="matrix" values="0 0 0 0 1 0 0 0 0 1 0 0 0 0 1 0 0 0 1 0"/>
<feBlend mode="normal" in2="shape" result="effect1_innerShadow_1803_2234"/>
</filter>
<filter id="filter2_i_1803_2234" x="43.5938" y="39.8262" width="99.8584" height="103.156" filterUnits="userSpaceOnUse" color-interpolation-filters="sRGB">
<feFlood flood-opacity="0" result="BackgroundImageFix"/>
<feBlend mode="normal" in="SourceGraphic" in2="BackgroundImageFix" result="shape"/>
<feColorMatrix in="SourceAlpha" type="matrix" values="0 0 0 0 0 0 0 0 0 0 0 0 0 0 0 0 0 0 127 0" result="hardAlpha"/>
<feOffset dy="2.35516"/>
<feGaussianBlur stdDeviation="4.23929"/>
<feComposite in2="hardAlpha" operator="arithmetic" k2="-1" k3="1"/>
<feColorMatrix type="matrix" values="0 0 0 0 1 0 0 0 0 1 0 0 0 0 1 0 0 0 0.81 0"/>
<feBlend mode="normal" in2="shape" result="effect1_innerShadow_1803_2234"/>
</filter>
<filter id="filter3_i_1803_2234" x="28" y="101.712" width="66.8867" height="44.2772" filterUnits="userSpaceOnUse" color-interpolation-filters="sRGB">
<feFlood flood-opacity="0" result="BackgroundImageFix"/>
<feBlend mode="normal" in="SourceGraphic" in2="BackgroundImageFix" result="shape"/>
<feColorMatrix in="SourceAlpha" type="matrix" values="0 0 0 0 0 0 0 0 0 0 0 0 0 0 0 0 0 0 127 0" result="hardAlpha"/>
<feOffset dy="5.18135"/>
<feGaussianBlur stdDeviation="2.35516"/>
<feComposite in2="hardAlpha" operator="arithmetic" k2="-1" k3="1"/>
<feColorMatrix type="matrix" values="0 0 0 0 1 0 0 0 0 1 0 0 0 0 1 0 0 0 1 0"/>
<feBlend mode="normal" in2="shape" result="effect1_innerShadow_1803_2234"/>
</filter>
<linearGradient id="paint0_linear_1803_2234" x1="106.677" y1="68.0339" x2="173.984" y2="17.5236" gradientUnits="userSpaceOnUse">
<stop stop-color="white"/>
<stop offset="1" stop-color="white" stop-opacity="0.58"/>
</linearGradient>
<linearGradient id="paint1_linear_1803_2234" x1="85.9389" y1="117.66" x2="127.605" y2="45.2667" gradientUnits="userSpaceOnUse">
<stop stop-color="#FF9900"/>
<stop offset="1" stop-color="#FFEE94"/>
</linearGradient>
<linearGradient id="paint2_linear_1803_2234" x1="32.2545" y1="137.746" x2="99.561" y2="87.236" gradientUnits="userSpaceOnUse">
<stop stop-color="white"/>
<stop offset="1" stop-color="white" stop-opacity="0.58"/>
</linearGradient>
</defs>
</svg>
