<svg width="187" height="180" viewBox="0 0 187 180" fill="none" xmlns="http://www.w3.org/2000/svg">
<g filter="url(#filter0_f_1803_2215)">
<rect x="37.082" y="36.8555" width="113.048" height="106.453" rx="44.277" fill="#FFEF9A"/>
</g>
<g filter="url(#filter1_i_1803_2215)">
<path d="M142.593 98.5606C142.593 125.616 120.66 147.548 93.6055 147.548C66.5505 147.548 44.6182 125.616 44.6182 98.5606C44.6182 71.5056 66.5505 49.5732 93.6055 49.5732C120.66 49.5732 142.593 71.5056 142.593 98.5606Z" fill="url(#paint0_linear_1803_2215)"/>
</g>
<g filter="url(#filter2_b_1803_2215)">
<g filter="url(#filter3_i_1803_2215)">
<path d="M131.911 125.333C132.252 123.4 132.429 121.411 132.429 119.382C132.429 100.393 116.892 84.9995 97.7266 84.9995C83.4785 84.9995 71.236 93.5069 65.8915 105.674C61.5619 101.971 55.9436 99.7347 49.804 99.7347C36.1142 99.7347 25.0164 110.852 25.0164 124.566C25.0164 125.33 25.0508 126.085 25.1182 126.832C18.5336 130.027 13.9997 136.732 13.9997 144.486C13.9997 155.337 22.878 164.133 33.8298 164.133H127.472C138.424 164.133 147.302 155.337 147.302 144.486C147.302 135.147 140.726 127.331 131.911 125.333Z" fill="url(#paint1_linear_1803_2215)"/>
</g>
</g>
<defs>
<filter id="filter0_f_1803_2215" x="0.812572" y="0.58601" width="185.587" height="178.992" filterUnits="userSpaceOnUse" color-interpolation-filters="sRGB">
<feFlood flood-opacity="0" result="BackgroundImageFix"/>
<feBlend mode="normal" in="SourceGraphic" in2="BackgroundImageFix" result="shape"/>
<feGaussianBlur stdDeviation="18.1347" result="effect1_foregroundBlur_1803_2215"/>
</filter>
<filter id="filter1_i_1803_2215" x="44.6182" y="49.5732" width="97.9746" height="100.33" filterUnits="userSpaceOnUse" color-interpolation-filters="sRGB">
<feFlood flood-opacity="0" result="BackgroundImageFix"/>
<feBlend mode="normal" in="SourceGraphic" in2="BackgroundImageFix" result="shape"/>
<feColorMatrix in="SourceAlpha" type="matrix" values="0 0 0 0 0 0 0 0 0 0 0 0 0 0 0 0 0 0 127 0" result="hardAlpha"/>
<feOffset dy="2.35516"/>
<feGaussianBlur stdDeviation="4.23929"/>
<feComposite in2="hardAlpha" operator="arithmetic" k2="-1" k3="1"/>
<feColorMatrix type="matrix" values="0 0 0 0 1 0 0 0 0 1 0 0 0 0 1 0 0 0 0.81 0"/>
<feBlend mode="normal" in2="shape" result="effect1_innerShadow_1803_2215"/>
</filter>
<filter id="filter2_b_1803_2215" x="1.28214" y="72.2816" width="158.737" height="104.57" filterUnits="userSpaceOnUse" color-interpolation-filters="sRGB">
<feFlood flood-opacity="0" result="BackgroundImageFix"/>
<feGaussianBlur in="BackgroundImageFix" stdDeviation="6.35893"/>
<feComposite in2="SourceAlpha" operator="in" result="effect1_backgroundBlur_1803_2215"/>
<feBlend mode="normal" in="SourceGraphic" in2="effect1_backgroundBlur_1803_2215" result="shape"/>
</filter>
<filter id="filter3_i_1803_2215" x="14" y="84.9995" width="133.302" height="83.8436" filterUnits="userSpaceOnUse" color-interpolation-filters="sRGB">
<feFlood flood-opacity="0" result="BackgroundImageFix"/>
<feBlend mode="normal" in="SourceGraphic" in2="BackgroundImageFix" result="shape"/>
<feColorMatrix in="SourceAlpha" type="matrix" values="0 0 0 0 0 0 0 0 0 0 0 0 0 0 0 0 0 0 127 0" result="hardAlpha"/>
<feOffset dy="5.18135"/>
<feGaussianBlur stdDeviation="2.35516"/>
<feComposite in2="hardAlpha" operator="arithmetic" k2="-1" k3="1"/>
<feColorMatrix type="matrix" values="0 0 0 0 1 0 0 0 0 1 0 0 0 0 1 0 0 0 1 0"/>
<feBlend mode="normal" in2="shape" result="effect1_innerShadow_1803_2215"/>
</filter>
<linearGradient id="paint0_linear_1803_2215" x1="86.1644" y1="125.225" x2="126.47" y2="54.534" gradientUnits="userSpaceOnUse">
<stop stop-color="#FF9900"/>
<stop offset="1" stop-color="#FFEE94"/>
</linearGradient>
<linearGradient id="paint1_linear_1803_2215" x1="22.4783" y1="157.067" x2="156.958" y2="56.5021" gradientUnits="userSpaceOnUse">
<stop stop-color="white"/>
<stop offset="1" stop-color="white" stop-opacity="0.58"/>
</linearGradient>
</defs>
</svg>
