<svg width="130" height="71" viewBox="0 0 130 71" fill="none" xmlns="http://www.w3.org/2000/svg">
<path d="M61.9691 10.1707C62.9077 10.8977 64.3062 10.8132 65.0931 9.98207C71.9781 2.70556 84.2198 1.96443 92.4343 8.32662C100.634 14.6773 101.723 25.7052 94.8788 32.9822C94.866 32.9951 94.8532 33.0083 94.8406 33.0216C94.0538 33.8532 94.1769 35.1167 95.1157 35.8438C96.0545 36.5709 97.4533 36.4863 98.2402 35.6548C106.699 26.715 105.375 13.1314 95.283 5.31503C85.202 -2.49279 70.1856 -1.59274 61.7218 7.31952C61.7125 7.32906 61.7032 7.3387 61.6939 7.34844C60.9071 8.18004 61.0303 9.44362 61.9691 10.1707Z" fill="#FFD600"/>
<path d="M115.906 67.3176L115.907 67.3166C125.173 62.6345 128.318 51.984 122.931 43.5281C117.55 35.081 105.691 32.0192 96.4289 36.6802L96.3984 36.6959C95.3394 37.231 93.9819 36.8813 93.3662 35.915C92.7506 34.9486 93.11 33.7314 94.1691 33.1963L94.1697 33.1955C105.554 27.4432 120.148 31.2018 126.766 41.5905C133.373 51.9627 129.532 65.0226 118.189 70.789C118.171 70.7987 118.153 70.8083 118.134 70.8176C117.075 71.3527 118.902 70.6325 118.286 69.6661C117.671 68.6997 114.847 67.8527 115.906 67.3176Z" fill="#FFD600"/>
<path fill-rule="evenodd" clip-rule="evenodd" d="M64.7431 26.5295C64.5625 26.2023 64.4595 25.8248 64.4595 25.4228C64.4595 25.4158 64.4595 25.4088 64.4596 25.4019C64.4597 25.3933 64.4598 25.3848 64.4599 25.3763C64.4364 14.4674 55.7448 5.63135 45.0265 5.63135C34.6922 5.63135 26.242 13.8455 25.6286 24.212C31.13 24.6218 36.5186 26.9641 40.7305 31.2389C40.7402 31.2485 40.7499 31.2582 40.7595 31.268C41.6269 32.1512 41.6269 33.5832 40.7595 34.4664C39.8922 35.3496 38.4859 35.3496 37.6186 34.4664L37.618 34.4658C30.0287 26.7381 17.7244 26.7382 10.1353 34.4663C2.54622 42.1944 2.54606 54.7239 10.1348 62.4522L10.1347 62.4524L10.1358 62.4535C11.0032 63.3367 11.0032 64.7687 10.1358 65.652C9.26846 66.5352 7.86222 66.5352 6.99488 65.652L6.99369 65.6508C-2.33001 56.1562 -2.32993 40.7624 6.99394 31.2679C10.968 27.221 15.9945 24.899 21.1763 24.3019C21.7509 11.3941 32.2094 1.10889 45.0269 1.10889C57.4333 1.10889 67.6295 10.7448 68.792 23.0679C80.692 21.1738 92.3246 28.6881 95.5124 40.8029C98.9252 53.7729 91.3667 67.1044 78.6299 70.5797L78.6293 70.5798L78.6292 70.5795L78.629 70.5795C77.4442 70.9028 76.2264 70.1868 75.9089 68.9803C75.5914 67.7738 76.2946 66.5336 77.4794 66.2103L77.5133 66.2014C87.8598 63.3582 93.9955 52.5192 91.2207 41.9738C88.4429 31.417 77.7871 25.1521 67.4201 27.9805L67.42 27.9801L67.4189 27.9804C66.2835 28.2902 65.1177 27.6456 64.7431 26.5295Z" fill="black"/>
</svg>
