<svg width="79" height="66" viewBox="0 0 79 66" fill="none" xmlns="http://www.w3.org/2000/svg">
<path fill-rule="evenodd" clip-rule="evenodd" d="M33.4481 24.0033C30.0687 20.6282 25.7419 18.7792 21.3244 18.4564C21.8169 10.295 28.5917 3.82844 36.8768 3.82844C45.482 3.82844 52.4579 10.8043 52.4579 19.4095V19.4102H52.4583V19.4102C52.4583 19.7301 52.5426 20.0302 52.6902 20.2897C52.9937 21.1632 53.9253 21.6667 54.8327 21.4235L54.8328 21.4235L54.8328 21.4237L54.8331 21.4236C63.1451 19.1964 71.6888 24.1291 73.916 32.4411C76.1398 40.7402 71.2257 49.2704 62.9369 51.5136C62.9333 51.5145 62.9296 51.5154 62.926 51.5163C62.9166 51.5187 62.9073 51.5211 62.8979 51.5236C61.948 51.7781 61.3842 52.7546 61.6388 53.7045C61.8933 54.6544 62.8697 55.2182 63.8197 54.9636L63.8198 54.9636L63.82 54.964L63.8203 54.9639C74.0322 52.2276 80.0924 41.7311 77.3561 31.5192C74.8001 21.98 65.4725 16.0635 55.9308 17.5559C54.9985 7.85356 46.8237 0.26709 36.8769 0.26709C26.6005 0.26709 18.2154 8.36479 17.7544 18.5274C13.6004 18.9978 9.57091 20.826 6.38503 24.0119C-1.08259 31.4795 -1.09057 43.5819 6.36107 51.0594C6.36479 51.0633 6.36853 51.0672 6.37228 51.071C6.37649 51.0753 6.38072 51.0795 6.38498 51.0838C7.08039 51.7792 8.20786 51.7792 8.90327 51.0838C9.59867 50.3884 9.59867 49.2609 8.90327 48.5655L8.90289 48.5651L8.90323 48.5648C2.81878 42.48 2.8189 32.6148 8.90358 26.5301C14.9835 20.4503 24.8378 20.4454 30.9238 26.5154L30.9389 26.5307C31.6343 27.2261 32.7618 27.2261 33.4572 26.5307C34.1526 25.8353 34.1526 24.7078 33.4572 24.0124L33.4481 24.0033Z" fill="black"/>
<path fill-rule="evenodd" clip-rule="evenodd" d="M47.5889 47.0791C46.7271 47.0791 46.0285 47.7777 46.0285 48.6395C46.0285 49.5013 46.7271 50.1999 47.5889 50.1999H56.1711C57.0329 50.1999 57.7315 49.5013 57.7315 48.6395C57.7315 47.7777 57.0329 47.0791 56.1711 47.0791H47.5889ZM17.161 47.0793C16.2992 47.0793 15.6006 47.7779 15.6006 48.6397C15.6006 49.5014 16.2992 50.2001 17.161 50.2001H41.3473C42.2091 50.2001 42.9077 49.5014 42.9077 48.6397C42.9077 47.7779 42.2091 47.0793 41.3473 47.0793H17.161ZM17.1611 62.6832C16.2993 62.6832 15.6007 63.3818 15.6007 64.2436C15.6007 65.1054 16.2993 65.804 17.1611 65.804H41.3474C42.2092 65.804 42.9078 65.1054 42.9078 64.2436C42.9078 63.3818 42.2092 62.6832 41.3474 62.6832H17.1611ZM30.4244 56.4415C30.4244 55.5798 31.123 54.8811 31.9848 54.8811H56.1711C57.0329 54.8811 57.7315 55.5798 57.7315 56.4415C57.7315 57.3033 57.0329 58.0019 56.1711 58.0019H31.9848C31.123 58.0019 30.4244 57.3033 30.4244 56.4415ZM46.0285 64.2436C46.0285 63.3818 46.7271 62.6832 47.5889 62.6832H56.1711C57.0329 62.6832 57.7315 63.3818 57.7315 64.2436C57.7315 65.1054 57.0329 65.804 56.1711 65.804H47.5889C46.7271 65.804 46.0285 65.1054 46.0285 64.2436ZM17.1611 54.8811C16.2993 54.8811 15.6007 55.5798 15.6007 56.4415C15.6007 57.3033 16.2993 58.0019 17.1611 58.0019H25.7434C26.6051 58.0019 27.3038 57.3033 27.3038 56.4415C27.3038 55.5798 26.6051 54.8811 25.7434 54.8811H17.1611Z" fill="#B6C4DA"/>
</svg>
