<svg width="78" height="74" viewBox="0 0 78 74" fill="none" xmlns="http://www.w3.org/2000/svg">
<path fill-rule="evenodd" clip-rule="evenodd" d="M33.3104 24.1799C29.9385 20.8358 25.6324 19.0031 21.2365 18.6816C21.729 10.5202 28.5038 4.05353 36.789 4.05353C45.3942 4.05353 52.3701 11.0294 52.3701 19.6346V19.6352H52.3705C52.3705 19.9565 52.4557 20.2579 52.6046 20.5182C52.9093 21.3891 53.8391 21.8908 54.745 21.6485L54.745 21.6487L54.7453 21.6487C63.0573 19.4215 71.601 24.3542 73.8282 32.6662C76.0522 40.9662 71.1369 49.4972 62.8466 51.7394C62.8344 51.7424 62.8223 51.7455 62.8101 51.7488C61.8602 52.0033 61.2964 52.9797 61.551 53.9297C61.8055 54.8796 62.7819 55.4433 63.7319 55.1888L63.7321 55.1888L63.7322 55.1891L63.7327 55.189C73.9445 52.4527 80.0047 41.9562 77.2684 31.7443C74.7124 22.2051 65.3848 16.2886 55.8431 17.781C54.9108 8.07866 46.736 0.492188 36.7892 0.492188C26.5128 0.492188 18.1277 8.58985 17.6667 18.7524C13.5123 19.2226 9.48234 21.0508 6.29616 24.237C-1.17945 31.7126 -1.17945 43.833 6.29616 51.3086L6.29668 51.3091L6.29745 51.3083L6.29802 51.3089C6.99342 52.0043 8.1209 52.0043 8.81631 51.3089C9.51171 50.6135 9.51171 49.486 8.8163 48.7906C8.80492 48.7792 8.79343 48.768 8.78182 48.757C2.7302 42.6696 2.74125 32.829 8.81498 26.7553C14.8998 20.6705 24.7652 20.6705 30.85 26.7553L30.8502 26.7555L30.8512 26.7546L30.852 26.7554C31.5474 27.4508 32.6749 27.4508 33.3703 26.7554C34.0657 26.06 34.0657 24.9325 33.3703 24.2371C33.3506 24.2175 33.3307 24.1984 33.3104 24.1799Z" fill="black"/>
<rect x="38" y="25" width="5" height="13" rx="2.5" fill="url(#paint0_linear_1803_2443)"/>
<rect x="23" y="32" width="5" height="13" rx="2.5" fill="url(#paint1_linear_1803_2443)"/>
<rect x="13" y="42" width="5" height="13" rx="2.5" fill="url(#paint2_linear_1803_2443)"/>
<rect x="23" y="52" width="5" height="13" rx="2.5" fill="url(#paint3_linear_1803_2443)"/>
<rect x="49" y="53" width="5" height="13" rx="2.5" fill="url(#paint4_linear_1803_2443)"/>
<rect x="49" y="33" width="5" height="13" rx="2.5" fill="url(#paint5_linear_1803_2443)"/>
<rect x="60" y="42" width="5" height="13" rx="2.5" fill="url(#paint6_linear_1803_2443)"/>
<path fill-rule="evenodd" clip-rule="evenodd" d="M43.7612 36.7017C43.6655 36.6803 43.566 36.6689 43.4639 36.6689H34.7387C33.991 36.6689 33.3848 37.2751 33.3848 38.0228C33.3848 38.036 33.385 38.0491 33.3854 38.0622C33.3748 38.0927 33.3653 38.1239 33.3568 38.1556L28.8248 55.0692C28.6313 55.7914 29.0599 56.5338 29.7821 56.7273C29.9052 56.7603 30.0289 56.7752 30.1503 56.7737C30.2699 56.8083 30.3963 56.8268 30.5271 56.8268H34.7483L30.7461 71.7629C30.5526 72.4852 30.9812 73.2276 31.7035 73.4211C31.8041 73.4481 31.9051 73.4629 32.0049 73.4666C32.4392 73.56 32.9106 73.4379 33.2481 73.1004L52.6073 53.7412C52.7029 53.6456 52.7812 53.5393 52.8422 53.4262C53.0896 53.1809 53.2429 52.8407 53.2429 52.4647C53.2429 51.717 52.6367 51.1108 51.889 51.1108L41.7144 51.1108L45.1188 38.4055C45.3123 37.6832 44.8837 36.9408 44.1614 36.7473C44.0275 36.7114 43.8929 36.6969 43.7612 36.7017ZM36.3548 54.1235C36.5207 54.1038 36.6931 54.1148 36.8643 54.1606C37.5866 54.3542 38.0152 55.0966 37.8217 55.8188L34.5719 67.9472L48.7005 53.8186L40.1552 53.8186C40.1042 53.8186 40.054 53.8158 40.0045 53.8103C39.872 53.8155 39.7364 53.801 39.6016 53.7649C38.8793 53.5713 38.4507 52.829 38.6442 52.1067L42.0552 39.3767L35.8329 39.3767L31.8827 54.119H36.2435C36.281 54.119 36.3181 54.1205 36.3548 54.1235Z" fill="#FFD600"/>
<defs>
<linearGradient id="paint0_linear_1803_2443" x1="40.5" y1="25" x2="40.5" y2="38" gradientUnits="userSpaceOnUse">
<stop stop-color="#89B9FF"/>
<stop offset="1" stop-color="#4B94FF"/>
</linearGradient>
<linearGradient id="paint1_linear_1803_2443" x1="25.5" y1="32" x2="25.5" y2="45" gradientUnits="userSpaceOnUse">
<stop stop-color="#89B9FF"/>
<stop offset="1" stop-color="#4B94FF"/>
</linearGradient>
<linearGradient id="paint2_linear_1803_2443" x1="15.5" y1="42" x2="15.5" y2="55" gradientUnits="userSpaceOnUse">
<stop stop-color="#89B9FF"/>
<stop offset="1" stop-color="#4B94FF"/>
</linearGradient>
<linearGradient id="paint3_linear_1803_2443" x1="25.5" y1="52" x2="25.5" y2="65" gradientUnits="userSpaceOnUse">
<stop stop-color="#89B9FF"/>
<stop offset="1" stop-color="#4B94FF"/>
</linearGradient>
<linearGradient id="paint4_linear_1803_2443" x1="51.5" y1="53" x2="51.5" y2="66" gradientUnits="userSpaceOnUse">
<stop stop-color="#89B9FF"/>
<stop offset="1" stop-color="#4B94FF"/>
</linearGradient>
<linearGradient id="paint5_linear_1803_2443" x1="51.5" y1="33" x2="51.5" y2="46" gradientUnits="userSpaceOnUse">
<stop stop-color="#89B9FF"/>
<stop offset="1" stop-color="#4B94FF"/>
</linearGradient>
<linearGradient id="paint6_linear_1803_2443" x1="62.5" y1="42" x2="62.5" y2="55" gradientUnits="userSpaceOnUse">
<stop stop-color="#89B9FF"/>
<stop offset="1" stop-color="#4B94FF"/>
</linearGradient>
</defs>
</svg>
