<svg width="79" height="69" viewBox="0 0 79 69" fill="none" xmlns="http://www.w3.org/2000/svg">
<path fill-rule="evenodd" clip-rule="evenodd" d="M56.0282 17.5164C55.0961 7.81379 46.9212 0.227051 36.9743 0.227051C26.6979 0.227051 18.3129 8.32459 17.8517 18.487C13.6968 18.957 9.66631 20.7852 6.47976 23.9718C-0.995733 31.4473 -0.995856 43.5674 6.47938 51.043L6.47979 51.0426L6.48036 51.0432C7.17576 51.7386 8.30324 51.7386 8.99864 51.0432C9.69405 50.3478 9.69405 49.2203 8.99864 48.5249C8.99001 48.5162 8.98131 48.5077 8.97254 48.4993C2.91337 42.4125 2.92191 32.5662 8.99816 26.49C15.0828 20.4053 24.948 20.4052 31.0328 26.4896L31.0333 26.4891L31.0343 26.4901C31.7297 27.1855 32.8572 27.1855 33.5526 26.4901C34.248 25.7947 34.248 24.6672 33.5526 23.9718C33.5384 23.9575 33.5239 23.9436 33.5093 23.9299C30.1356 20.5766 25.8237 18.7387 21.4216 18.4165C21.914 10.255 28.6889 3.78827 36.9741 3.78827C45.565 3.78827 52.5319 10.7409 52.5551 19.3264C52.5548 19.3407 52.5546 19.3552 52.5546 19.3696C52.5546 19.6891 52.6388 19.989 52.7862 20.2483C53.0892 21.1226 54.0212 21.6266 54.929 21.3834L54.9294 21.3833L54.9297 21.3844L54.9304 21.3843C63.2424 19.1571 71.7861 24.0898 74.0133 32.4018C76.2353 40.6946 71.3304 49.2182 63.053 51.4692C63.0334 51.4737 63.0138 51.4786 62.9943 51.4839C62.0443 51.7384 61.4806 52.7148 61.7351 53.6648C61.9896 54.6147 62.9661 55.1785 63.916 54.9239L63.9166 54.9238L63.9168 54.9246L63.9176 54.9244C74.1295 52.1881 80.1897 41.6916 77.4534 31.4797C74.8974 21.9405 65.5698 16.0241 56.0282 17.5164Z" fill="black"/>
<rect x="48.4814" y="40.3042" width="3.90101" height="13.2634" rx="1.95051" transform="rotate(45 48.4814 40.3042)" fill="url(#paint0_linear_1803_2370)"/>
<rect x="37.666" y="37.1836" width="3.90101" height="17.8286" rx="1.95051" transform="rotate(45 37.666 37.1836)" fill="url(#paint1_linear_1803_2370)"/>
<rect x="53.1631" y="51.2271" width="3.90101" height="10.5203" rx="1.95051" transform="rotate(45 53.1631 51.2271)" fill="url(#paint2_linear_1803_2370)"/>
<rect x="22.3564" y="52.7876" width="3.90101" height="10.5203" rx="1.95051" transform="rotate(45 22.3564 52.7876)" fill="url(#paint3_linear_1803_2370)"/>
<rect x="35.6191" y="55.9087" width="3.90101" height="13.9929" rx="1.95051" transform="rotate(45 35.6191 55.9087)" fill="url(#paint4_linear_1803_2370)"/>
<defs>
<linearGradient id="paint0_linear_1803_2370" x1="50.432" y1="40.3042" x2="50.432" y2="53.5676" gradientUnits="userSpaceOnUse">
<stop stop-color="#89B9FF"/>
<stop offset="1" stop-color="#4B94FF"/>
</linearGradient>
<linearGradient id="paint1_linear_1803_2370" x1="39.6165" y1="37.1836" x2="39.6165" y2="55.0122" gradientUnits="userSpaceOnUse">
<stop stop-color="#89B9FF"/>
<stop offset="1" stop-color="#4B94FF"/>
</linearGradient>
<linearGradient id="paint2_linear_1803_2370" x1="55.1136" y1="51.2271" x2="55.1136" y2="61.7473" gradientUnits="userSpaceOnUse">
<stop stop-color="#89B9FF"/>
<stop offset="1" stop-color="#4B94FF"/>
</linearGradient>
<linearGradient id="paint3_linear_1803_2370" x1="24.307" y1="52.7876" x2="24.307" y2="63.3079" gradientUnits="userSpaceOnUse">
<stop stop-color="#89B9FF"/>
<stop offset="1" stop-color="#4B94FF"/>
</linearGradient>
<linearGradient id="paint4_linear_1803_2370" x1="37.5696" y1="55.9087" x2="37.5696" y2="69.9015" gradientUnits="userSpaceOnUse">
<stop stop-color="#89B9FF"/>
<stop offset="1" stop-color="#4B94FF"/>
</linearGradient>
</defs>
</svg>
