<svg width="78" height="75" viewBox="0 0 78 75" fill="none" xmlns="http://www.w3.org/2000/svg">
<path fill-rule="evenodd" clip-rule="evenodd" d="M5.78249 24.3477C8.96872 21.1615 12.9987 19.3333 17.1532 18.8631C17.6138 8.70015 25.9991 0.602051 36.2758 0.602051C46.2226 0.602051 54.3974 8.18858 55.3297 17.891C64.8707 16.3997 74.1972 22.316 76.7531 31.8546C79.4893 42.0663 73.4293 52.5627 63.2177 55.2992L63.2175 55.299C62.2675 55.5536 61.2911 54.9898 61.0366 54.0399C60.782 53.09 61.3458 52.1135 62.2957 51.859L62.3249 51.8515C70.6191 49.612 75.5376 41.0787 73.313 32.7765C71.0858 24.4647 62.5424 19.532 54.2306 21.7588L54.2305 21.7585C53.3219 22.002 52.3891 21.4969 52.0869 20.6213C51.9405 20.3626 51.8569 20.0637 51.8569 19.7453V19.7452H51.8565V19.7446C51.8565 11.1394 44.8806 4.16349 36.2754 4.16349C27.99 4.16349 21.215 10.6306 20.7229 18.7923C25.1267 19.1143 29.4404 20.9531 32.8149 24.3087C32.8284 24.3213 32.8416 24.3342 32.8548 24.3473C33.5502 25.0427 33.5502 26.1702 32.8548 26.8656C32.1594 27.561 31.0319 27.561 30.3365 26.8656L30.3361 26.8653L30.3358 26.8656C24.251 20.7811 14.3859 20.7813 8.30118 26.8659C2.2165 32.9506 2.21638 42.8158 8.30081 48.9006L8.30068 48.9007L8.30082 48.9009C8.99623 49.5963 8.99623 50.7237 8.30082 51.4191C7.60541 52.1146 6.47794 52.1146 5.78253 51.4191L5.78229 51.4191C-1.69312 43.9435 -1.69306 31.8233 5.78249 24.3477Z" fill="black"/>
<path fill-rule="evenodd" clip-rule="evenodd" d="M5.78249 24.3477C8.96872 21.1615 12.9987 19.3333 17.1532 18.8631C17.6138 8.70015 25.9991 0.602051 36.2758 0.602051C46.2225 0.602051 54.3974 8.18852 55.3297 17.8908C64.8704 16.4001 74.1965 22.3163 76.7522 31.8546C79.4884 42.0663 73.4285 52.5626 63.217 55.2991L63.2168 55.299C62.2668 55.5536 61.2904 54.9898 61.0359 54.0399C60.7813 53.09 61.3451 52.1135 62.295 51.859L62.3242 51.8515C70.6184 49.612 75.5368 41.0787 73.3123 32.7765C71.0851 24.4647 62.5417 19.532 54.2299 21.7588L54.2298 21.7585C53.3201 22.0023 52.3861 21.4956 52.0851 20.6181C51.9398 20.3602 51.8569 20.0624 51.8569 19.7453V19.7452H51.8565V19.7446C51.8565 11.1394 44.8806 4.16349 36.2754 4.16349C27.99 4.16349 21.215 10.6306 20.7229 18.7923C25.1267 19.1143 29.4404 20.9531 32.8149 24.3087C32.8284 24.3213 32.8416 24.3342 32.8548 24.3473C33.5502 25.0427 33.5502 26.1702 32.8548 26.8656C32.1594 27.561 31.0319 27.561 30.3365 26.8656L30.3361 26.8653L30.3358 26.8656C24.251 20.7811 14.3859 20.7813 8.30118 26.8659C2.2165 32.9506 2.21638 42.8158 8.30081 48.9006L8.30068 48.9007L8.30082 48.9009C8.99623 49.5963 8.99623 50.7237 8.30082 51.4191C7.60541 52.1146 6.47794 52.1146 5.78253 51.4191L5.78229 51.4191C-1.69312 43.9435 -1.69306 31.8233 5.78249 24.3477Z" fill="black"/>
<rect x="55.585" y="38.0522" width="3.90101" height="13.2634" rx="1.95051" transform="rotate(45 55.585 38.0522)" fill="url(#paint0_linear_1803_2904)"/>
<rect x="23.7041" y="45.0742" width="3.90101" height="17.8286" rx="1.95051" transform="rotate(45 23.7041 45.0742)" fill="url(#paint1_linear_1803_2904)"/>
<rect x="56.7666" y="55.9971" width="3.90101" height="10.5203" rx="1.95051" transform="rotate(45 56.7666 55.9971)" fill="url(#paint2_linear_1803_2904)"/>
<rect x="24.7783" y="58.3379" width="3.90101" height="10.5203" rx="1.95051" transform="rotate(45 24.7783 58.3379)" fill="url(#paint3_linear_1803_2904)"/>
<path fill-rule="evenodd" clip-rule="evenodd" d="M42.4659 38.0854C42.3698 38.0637 42.2697 38.0522 42.167 38.0522L33.4418 38.0522C32.6941 38.0522 32.0879 38.6584 32.0879 39.4061C32.0879 39.4194 32.0881 39.4327 32.0885 39.4459C32.0779 39.4764 32.0684 39.5076 32.0599 39.5393L27.5279 56.4529C27.3344 57.1751 27.763 57.9175 28.4853 58.1111C28.6083 58.144 28.732 58.159 28.8534 58.1574C28.973 58.192 29.0995 58.2105 29.2302 58.2105H33.4513L29.4493 73.1462C29.2557 73.8685 29.6844 74.6109 30.4066 74.8044C30.5064 74.8311 30.6066 74.846 30.7057 74.8499C31.1406 74.9442 31.6131 74.8223 31.9512 74.4842L51.3104 55.1249C51.4063 55.0291 51.4847 54.9225 51.5458 54.809C51.7929 54.5637 51.946 54.2238 51.946 53.848C51.946 53.1003 51.3398 52.4941 50.5921 52.4941L40.4176 52.4941L43.8219 39.7892C44.0154 39.0669 43.5868 38.3245 42.8645 38.131C42.7312 38.0953 42.5971 38.0807 42.4659 38.0854ZM35.0558 55.5071C35.2224 55.4871 35.3955 55.4979 35.5675 55.5439C36.2897 55.7375 36.7183 56.4799 36.5248 57.2021L33.2749 69.3311L47.404 55.2019L38.8583 55.2019C38.8083 55.2019 38.759 55.1992 38.7105 55.194C38.577 55.1994 38.4405 55.185 38.3047 55.1486C37.5824 54.9551 37.1538 54.2127 37.3473 53.4904L40.7584 40.76L34.5361 40.76L30.5858 55.5027H34.9467C34.9834 55.5027 35.0198 55.5042 35.0558 55.5071Z" fill="#FFD600"/>
<defs>
<linearGradient id="paint0_linear_1803_2904" x1="57.5355" y1="38.0522" x2="57.5355" y2="51.3157" gradientUnits="userSpaceOnUse">
<stop stop-color="#89B9FF"/>
<stop offset="1" stop-color="#4B94FF"/>
</linearGradient>
<linearGradient id="paint1_linear_1803_2904" x1="25.6546" y1="45.0742" x2="25.6546" y2="62.9028" gradientUnits="userSpaceOnUse">
<stop stop-color="#89B9FF"/>
<stop offset="1" stop-color="#4B94FF"/>
</linearGradient>
<linearGradient id="paint2_linear_1803_2904" x1="58.7171" y1="55.9971" x2="58.7171" y2="66.5174" gradientUnits="userSpaceOnUse">
<stop stop-color="#89B9FF"/>
<stop offset="1" stop-color="#4B94FF"/>
</linearGradient>
<linearGradient id="paint3_linear_1803_2904" x1="26.7288" y1="58.3379" x2="26.7288" y2="68.8582" gradientUnits="userSpaceOnUse">
<stop stop-color="#89B9FF"/>
<stop offset="1" stop-color="#4B94FF"/>
</linearGradient>
</defs>
</svg>
