<svg width="78" height="69" viewBox="0 0 78 69" fill="none" xmlns="http://www.w3.org/2000/svg">
<path fill-rule="evenodd" clip-rule="evenodd" d="M33.3114 24.3953C29.9395 21.0512 25.6334 19.2184 21.2375 18.8969C21.73 10.7355 28.5048 4.26887 36.79 4.26887C45.3952 4.26887 52.3711 11.2448 52.3711 19.85V19.8502H52.3714V19.8503C52.3714 20.172 52.4568 20.4738 52.6061 20.7343C52.9112 21.605 53.8411 22.1063 54.7469 21.8636L54.7704 21.8572C63.0748 19.6459 71.6041 24.5771 73.8292 32.8811C76.0564 41.1931 71.1237 49.7368 62.8117 51.964L62.8113 51.9641L62.8113 51.9641L62.8113 51.9641C61.8613 52.2186 61.2976 53.1951 61.5521 54.145C61.8067 55.095 62.7831 55.6587 63.733 55.4042L63.7331 55.4041L63.7332 55.4044L63.7336 55.4043C73.9455 52.6681 80.0057 42.1715 77.2694 31.9596C74.7134 22.4204 65.3858 16.504 55.8441 17.9963C54.9118 8.29399 46.737 0.70752 36.7902 0.70752C26.5138 0.70752 18.1287 8.80518 17.6677 18.9678C13.5132 19.438 9.48332 21.2662 6.29714 24.4523C-1.17847 31.928 -1.17847 44.0483 6.29714 51.5239L6.29745 51.5242L6.29843 51.5233L6.29899 51.5238C6.9944 52.2192 8.12188 52.2192 8.81728 51.5238C9.51269 50.8284 9.51269 49.7009 8.81728 49.0055C8.80372 48.992 8.78999 48.9787 8.77611 48.9656C2.73118 42.8777 2.74446 33.0421 8.81595 26.9706C14.9008 20.8858 24.7662 20.8858 30.851 26.9706L30.851 26.9707L30.852 26.9697L30.8529 26.9707C31.5484 27.6661 32.6758 27.6661 33.3712 26.9707C34.0666 26.2753 34.0666 25.1478 33.3712 24.4524C33.3516 24.4328 33.3317 24.4138 33.3114 24.3953Z" fill="black"/>
<circle cx="39.7028" cy="45.1784" r="3.90101" fill="url(#paint0_linear_1803_2741)"/>
<circle cx="21.3674" cy="58.0519" r="3.51091" fill="url(#paint1_linear_1803_2741)"/>
<circle cx="39.3118" cy="65.8538" r="2.73071" fill="url(#paint2_linear_1803_2741)"/>
<circle cx="52.1853" cy="57.6614" r="2.34061" fill="url(#paint3_linear_1803_2741)"/>
<defs>
<linearGradient id="paint0_linear_1803_2741" x1="39.7028" y1="41.2773" x2="39.7028" y2="49.0794" gradientUnits="userSpaceOnUse">
<stop stop-color="#9AC4FF"/>
<stop offset="1" stop-color="#3A8BFF"/>
</linearGradient>
<linearGradient id="paint1_linear_1803_2741" x1="21.3674" y1="54.541" x2="21.3674" y2="61.5628" gradientUnits="userSpaceOnUse">
<stop stop-color="#9AC4FF"/>
<stop offset="1" stop-color="#3A8BFF"/>
</linearGradient>
<linearGradient id="paint2_linear_1803_2741" x1="39.3118" y1="63.1231" x2="39.3118" y2="68.5845" gradientUnits="userSpaceOnUse">
<stop stop-color="#9AC4FF"/>
<stop offset="1" stop-color="#3A8BFF"/>
</linearGradient>
<linearGradient id="paint3_linear_1803_2741" x1="52.1853" y1="55.3208" x2="52.1853" y2="60.002" gradientUnits="userSpaceOnUse">
<stop stop-color="#9AC4FF"/>
<stop offset="1" stop-color="#3A8BFF"/>
</linearGradient>
</defs>
</svg>
