<svg width="78" height="71" viewBox="0 0 78 71" fill="none" xmlns="http://www.w3.org/2000/svg">
<path fill-rule="evenodd" clip-rule="evenodd" d="M5.77565 24.4556C8.96232 21.2689 12.993 19.4407 17.1481 18.9708C17.6096 8.80862 25.9945 0.711426 36.2706 0.711426C46.2175 0.711426 54.3924 8.29804 55.3245 18.0005C64.8661 16.5082 74.1937 22.4247 76.7497 31.9639C79.486 42.1757 73.4258 52.6723 63.2139 55.4085L63.2132 55.4087L63.2131 55.408L63.2126 55.4082C62.2627 55.6627 61.2863 55.099 61.0317 54.149C60.7772 53.1991 61.3409 52.2226 62.2909 51.9681C62.309 51.9632 62.3272 51.9587 62.3454 51.9544C70.6252 49.7051 75.532 41.1801 73.3096 32.8859C71.0824 24.5739 62.5387 19.6412 54.2267 21.8684L54.2262 21.8685L54.226 21.8679L54.2256 21.868C53.3177 22.1113 52.3857 21.6072 52.0827 20.7328C51.9354 20.4735 51.8512 20.1737 51.8512 19.8542L51.8515 19.8226C51.8347 11.2317 44.8653 4.27265 36.2704 4.27265C27.9854 4.27265 21.2107 10.7391 20.718 18.9003C25.1214 19.2228 29.4346 21.0618 32.8088 24.4173C32.8224 24.4301 32.8359 24.4431 32.8492 24.4564C33.5446 25.1518 33.5446 26.2793 32.8492 26.9747C32.1538 27.6701 31.0263 27.6701 30.3309 26.9747L30.3297 26.9735L30.3293 26.9739L30.3292 26.9739C24.2444 20.8891 14.379 20.8891 8.2942 26.9739C2.21624 33.0518 2.20941 42.9019 8.27371 48.9884L8.29525 49.0095C8.99066 49.705 8.99066 50.8324 8.29525 51.5278C7.59985 52.2232 6.47237 52.2232 5.77697 51.5278L5.77618 51.527L5.77585 51.5274L5.77565 51.5272C-1.69996 44.0516 -1.69996 31.9312 5.77565 24.4556Z" fill="black"/>
<path fill-rule="evenodd" clip-rule="evenodd" d="M39.0584 42.3377C38.6908 42.7053 38.6908 43.3012 39.0584 43.6688L41.2167 45.8271V48.4608L38.9362 47.1441L38.1462 44.1961C38.0117 43.694 37.4956 43.396 36.9935 43.5306C36.4914 43.6651 36.1934 44.1812 36.3279 44.6833L37.0273 47.2932L34.4166 47.9927C33.9145 48.1273 33.6165 48.6434 33.7511 49.1455C33.8856 49.6476 34.4017 49.9456 34.9038 49.811L38.0858 48.9584C38.1349 48.9453 38.1821 48.9285 38.2271 48.9084L40.4191 50.1739L37.8525 51.6558L34.904 50.8657C34.4019 50.7312 33.8858 51.0292 33.7512 51.5313C33.6167 52.0334 33.9147 52.5495 34.4168 52.684L37.0276 53.3836L36.3281 55.9939C36.1936 56.496 36.4916 57.0121 36.9937 57.1466C37.4958 57.2811 38.0119 56.9832 38.1464 56.4811L38.9991 53.299C39.0122 53.2499 39.0212 53.2007 39.0263 53.1517L41.2167 51.8871V54.8498L39.0584 57.0081C38.6908 57.3756 38.6908 57.9716 39.0584 58.3391C39.426 58.7067 40.0219 58.7067 40.3895 58.3391L42.3008 56.4278L44.2122 58.3391C44.5798 58.7067 45.1757 58.7067 45.5433 58.3391C45.9108 57.9716 45.9108 57.3756 45.5433 57.0081L43.2139 54.6787C43.1777 54.6425 43.1393 54.6099 43.0991 54.5808V51.7224L45.575 53.1518C45.5801 53.2008 45.5891 53.25 45.6022 53.2991L46.4549 56.4812C46.5894 56.9833 47.1055 57.2812 47.6076 57.1467C48.1097 57.0122 48.4077 56.496 48.2731 55.9939L47.5737 53.3837L50.1845 52.6841C50.6866 52.5496 50.9846 52.0335 50.85 51.5314C50.7155 51.0292 50.1994 50.7313 49.6973 50.8658L46.7488 51.6559L44.1824 50.1742L46.3747 48.9085C46.4195 48.9285 46.4665 48.9452 46.5155 48.9584L49.6975 49.811C50.1996 49.9455 50.7157 49.6475 50.8503 49.1454C50.9848 48.6433 50.6868 48.1272 50.1847 47.9927L47.5741 47.2931L48.2734 44.6833C48.4079 44.1812 48.1099 43.6651 47.6078 43.5305C47.1057 43.396 46.5896 43.6939 46.4551 44.1961L45.665 47.1445L43.0991 48.626V46.096C43.1393 46.067 43.1777 46.0344 43.2139 45.9982L45.5433 43.6688C45.9108 43.3012 45.9108 42.7053 45.5433 42.3377C45.1757 41.9701 44.5798 41.9701 44.2122 42.3377L42.3008 44.249L40.3895 42.3377C40.0219 41.9701 39.426 41.9701 39.0584 42.3377Z" fill="#77AEFF"/>
<path fill-rule="evenodd" clip-rule="evenodd" d="M51.9407 57.8419C51.7068 58.0758 51.7068 58.4551 51.9407 58.689L53.3143 60.0625V61.738L51.8635 60.9004L51.3608 59.0242C51.2752 58.7047 50.9467 58.5151 50.6272 58.6007C50.3077 58.6863 50.1181 59.0147 50.2037 59.3343L50.6488 60.9953L48.9871 61.4406C48.6675 61.5262 48.4779 61.8546 48.5635 62.1742C48.6491 62.4937 48.9776 62.6833 49.2971 62.5977L51.322 62.0551C51.3534 62.0467 51.3835 62.036 51.4122 62.0231L52.8073 62.8286L51.174 63.7715L49.2979 63.2689C48.9784 63.1832 48.65 63.3729 48.5644 63.6924C48.4787 64.0119 48.6684 64.3403 48.9879 64.426L50.6487 64.871L50.2037 66.5319C50.1181 66.8514 50.3077 67.1798 50.6272 67.2654C50.9467 67.3511 51.2752 67.1614 51.3608 66.8419L51.9033 64.817C51.9117 64.7859 51.9174 64.7547 51.9207 64.7237L53.3143 63.9191V65.8036L51.9407 67.1772C51.7068 67.4111 51.7068 67.7903 51.9407 68.0242C52.1746 68.2581 52.5539 68.2581 52.7878 68.0242L54.004 66.808L55.2202 68.0242C55.4541 68.2581 55.8333 68.2581 56.0672 68.0242C56.3012 67.7903 56.3012 67.4111 56.0672 67.1772L54.5849 65.6948C54.562 65.6719 54.5376 65.6512 54.5122 65.6328V63.8133L56.0886 64.7235C56.0919 64.7545 56.0976 64.7857 56.1059 64.8168L56.6485 66.8417C56.7341 67.1612 57.0625 67.3508 57.3821 67.2652C57.7016 67.1796 57.8912 66.8512 57.8056 66.5316L57.3605 64.8707L59.0214 64.4257C59.3409 64.3401 59.5305 64.0117 59.4449 63.6922C59.3593 63.3726 59.0308 63.183 58.7113 63.2686L56.8353 63.7713L55.2018 62.8282L56.5964 62.0231C56.6251 62.0359 56.6552 62.0467 56.6866 62.0551L58.7115 62.5976C59.031 62.6833 59.3595 62.4936 59.4451 62.1741C59.5307 61.8546 59.3411 61.5262 59.0215 61.4405L57.3598 60.9953L57.8049 59.3342C57.8905 59.0147 57.7009 58.6863 57.3814 58.6006C57.0619 58.515 56.7334 58.7046 56.6478 59.0242L56.1451 60.9004L54.5122 61.8432V60.2334C54.5376 60.2149 54.562 60.1943 54.5849 60.1713L56.0672 58.689C56.3012 58.4551 56.3012 58.0758 56.0672 57.8419C55.8333 57.608 55.4541 57.608 55.2202 57.8419L54.004 59.0581L52.7878 57.8419C52.5539 57.608 52.1746 57.608 51.9407 57.8419Z" fill="#77AEFF"/>
<path fill-rule="evenodd" clip-rule="evenodd" d="M18.4447 51.5626C18.2609 51.7464 18.2609 52.0444 18.4447 52.2282L19.5242 53.3078V54.6249L18.3842 53.9667L17.9891 52.4925C17.9219 52.2414 17.6638 52.0924 17.4128 52.1597C17.1617 52.227 17.0127 52.485 17.08 52.7361L17.4297 54.0412L16.1243 54.391C15.8733 54.4583 15.7243 54.7163 15.7915 54.9674C15.8588 55.2184 16.1169 55.3674 16.3679 55.3001L17.9589 54.8738C17.9835 54.8673 18.0071 54.8589 18.0296 54.8488L19.1254 55.4815L17.8428 56.222L16.3686 55.827C16.1175 55.7597 15.8595 55.9087 15.7922 56.1598C15.7249 56.4108 15.8739 56.6689 16.125 56.7361L17.4304 57.0859L17.0807 58.3911C17.0134 58.6421 17.1624 58.9002 17.4134 58.9674C17.6645 59.0347 17.9225 58.8857 17.9898 58.6347L18.4161 57.0437C18.4227 57.0191 18.4272 56.9945 18.4298 56.97L19.5242 56.3381V57.8183L18.4447 58.8979C18.2609 59.0817 18.2609 59.3796 18.4447 59.5634C18.6285 59.7472 18.9264 59.7472 19.1102 59.5634L20.0659 58.6077L21.0216 59.5634C21.2053 59.7472 21.5033 59.7472 21.6871 59.5634C21.8709 59.3796 21.8709 59.0817 21.6871 58.8979L20.5224 57.7332C20.5044 57.7152 20.4854 57.699 20.4655 57.6846V56.2563L21.7016 56.97C21.7042 56.9945 21.7087 57.0191 21.7153 57.0437L22.1416 58.6347C22.2089 58.8857 22.4669 59.0347 22.718 58.9674C22.969 58.9002 23.118 58.6421 23.0507 58.3911L22.701 57.0859L24.0064 56.7361C24.2575 56.6689 24.4065 56.4108 24.3392 56.1598C24.2719 55.9087 24.0139 55.7597 23.7628 55.827L22.2886 56.222L21.0062 55.4816L22.1031 54.8484C22.1256 54.8584 22.1492 54.8668 22.1737 54.8734L23.7647 55.2997C24.0158 55.367 24.2738 55.218 24.3411 54.9669C24.4084 54.7159 24.2594 54.4578 24.0083 54.3905L22.7029 54.0408L23.0526 52.7356C23.1199 52.4846 22.9709 52.2265 22.7199 52.1593C22.4688 52.092 22.2108 52.241 22.1435 52.492L21.7485 53.9663L20.4655 54.707V53.4415C20.4854 53.4271 20.5044 53.4109 20.5224 53.3929L21.6871 52.2282C21.8709 52.0444 21.8709 51.7464 21.6871 51.5626C21.5033 51.3789 21.2053 51.3789 21.0216 51.5626L20.0659 52.5183L19.1102 51.5626C18.9264 51.3789 18.6285 51.3789 18.4447 51.5626Z" fill="#77AEFF"/>
<path fill-rule="evenodd" clip-rule="evenodd" d="M32.4865 62.4855C32.3027 62.6693 32.3027 62.9673 32.4865 63.151L33.5661 64.2306V65.5472L32.4262 64.8891L32.0311 63.4148C31.9639 63.1638 31.7058 63.0148 31.4548 63.082C31.2037 63.1493 31.0547 63.4074 31.122 63.6584L31.4717 64.9636L30.1663 65.3133C29.9153 65.3806 29.7663 65.6387 29.8335 65.8897C29.9008 66.1408 30.1589 66.2897 30.4099 66.2225L32.0009 65.7962C32.0255 65.7896 32.0491 65.7812 32.0715 65.7711L33.1686 66.4045L31.8864 67.1448L30.4121 66.7498C30.1611 66.6825 29.903 66.8315 29.8358 67.0826C29.7685 67.3336 29.9175 67.5917 30.1685 67.6589L31.4739 68.0087L31.1242 69.3138C31.0569 69.5649 31.2059 69.823 31.457 69.8902C31.708 69.9575 31.9661 69.8085 32.0334 69.5575L32.4597 67.9664C32.4662 67.9419 32.4708 67.9173 32.4733 67.8928L33.5661 67.2619V68.7407L32.4865 69.8203C32.3027 70.0041 32.3027 70.3021 32.4865 70.4859C32.6703 70.6696 32.9683 70.6696 33.1521 70.4859L34.1077 69.5302L35.0634 70.4859C35.2472 70.6696 35.5452 70.6696 35.729 70.4859C35.9127 70.3021 35.9127 70.0041 35.729 69.8203L34.5643 68.6556C34.5463 68.6376 34.5272 68.6214 34.5073 68.607V67.1776L35.7451 67.8923C35.7477 67.9169 35.7522 67.9417 35.7588 67.9664L36.1851 69.5575C36.2524 69.8085 36.5105 69.9575 36.7615 69.8902C37.0126 69.823 37.1616 69.5649 37.0943 69.3138L36.7446 68.0089L38.0508 67.6589C38.3019 67.5917 38.4509 67.3336 38.3836 67.0826C38.3163 66.8315 38.0583 66.6825 37.8072 66.7498L36.333 67.1448L35.0492 66.4036L36.1444 65.7712C36.1669 65.7813 36.1905 65.7897 36.215 65.7963L37.8061 66.2226C38.0571 66.2898 38.3152 66.1409 38.3824 65.8898C38.4497 65.6387 38.3007 65.3807 38.0497 65.3134L36.7443 64.9636L37.094 63.6585C37.1613 63.4075 37.0123 63.1494 36.7612 63.0821C36.5102 63.0149 36.2521 63.1639 36.1848 63.4149L35.7898 64.8891L34.5073 65.6296V64.3644C34.5272 64.3499 34.5463 64.3337 34.5643 64.3157L35.729 63.151C35.9127 62.9673 35.9127 62.6693 35.729 62.4855C35.5452 62.3017 35.2472 62.3017 35.0634 62.4855L34.1077 63.4412L33.1521 62.4855C32.9683 62.3017 32.6703 62.3017 32.4865 62.4855Z" fill="#77AEFF"/>
</svg>
