<svg width="75" height="75" viewBox="0 0 75 75" fill="none" xmlns="http://www.w3.org/2000/svg">
<path fill-rule="evenodd" clip-rule="evenodd" d="M41.2582 4.24173C41.2582 2.22026 39.6195 0.581543 37.598 0.581543C35.5765 0.581543 33.9378 2.22026 33.9378 4.24173C33.9378 6.26319 35.5765 7.90191 37.598 7.90191C39.6195 7.90191 41.2582 6.26319 41.2582 4.24173ZM62.1729 37.7054C62.1729 51.278 51.1701 62.2809 37.5974 62.2809C24.0247 62.2809 13.0219 51.278 13.0219 37.7054C13.0219 24.1327 24.0247 13.1298 37.5974 13.1298C51.1701 13.1298 62.1729 24.1327 62.1729 37.7054ZM37.598 67.0733C39.6195 67.0733 41.2582 68.712 41.2582 70.7335C41.2582 72.7549 39.6195 74.3937 37.598 74.3937C35.5765 74.3937 33.9378 72.7549 33.9378 70.7335C33.9378 68.712 35.5765 67.0733 37.598 67.0733ZM71.0622 41.3657C73.0837 41.3657 74.7224 39.727 74.7224 37.7056C74.7224 35.6841 73.0837 34.0454 71.0622 34.0454C69.0407 34.0454 67.402 35.6841 67.402 37.7056C67.402 39.727 69.0407 41.3657 71.0622 41.3657ZM7.36627 37.7056C7.36627 39.727 5.72755 41.3657 3.70608 41.3657C1.68462 41.3657 0.0458983 39.727 0.0458984 37.7056C0.0458985 35.6841 1.68462 34.0454 3.70608 34.0454C5.72755 34.0454 7.36627 35.6841 7.36627 37.7056ZM58.6726 63.9563C60.102 65.3857 62.4195 65.3857 63.8489 63.9563C65.2783 62.5269 65.2783 60.2094 63.8489 58.78C62.4195 57.3506 60.102 57.3506 58.6726 58.78C57.2432 60.2094 57.2432 62.5269 58.6726 63.9563ZM16.5237 16.6307C15.0943 18.0601 12.7768 18.0601 11.3474 16.6307C9.91806 15.2013 9.91806 12.8838 11.3475 11.4544C12.7768 10.025 15.0943 10.025 16.5237 11.4544C17.9531 12.8838 17.9531 15.2013 16.5237 16.6307ZM63.8483 16.6313C65.2777 15.2019 65.2777 12.8844 63.8483 11.455C62.4189 10.0256 60.1014 10.0256 58.672 11.455C57.2426 12.8844 57.2426 15.2019 58.672 16.6313C60.1014 18.0607 62.4189 18.0607 63.8483 16.6313ZM16.524 58.7798C17.9534 60.2092 17.9534 62.5267 16.524 63.956C15.0946 65.3854 12.7771 65.3854 11.3477 63.956C9.91829 62.5267 9.91829 60.2092 11.3477 58.7798C12.7771 57.3504 15.0946 57.3504 16.524 58.7798Z" fill="url(#paint0_linear_1803_3121)"/>
<defs>
<linearGradient id="paint0_linear_1803_3121" x1="37.3841" y1="0.581543" x2="37.3841" y2="74.3937" gradientUnits="userSpaceOnUse">
<stop stop-color="#FFD600"/>
<stop offset="1" stop-color="#FFB800"/>
</linearGradient>
</defs>
</svg>
