<svg width="78" height="69" viewBox="0 0 78 69" fill="none" xmlns="http://www.w3.org/2000/svg">
<path fill-rule="evenodd" clip-rule="evenodd" d="M32.9103 23.9872C29.5331 20.6225 25.2129 18.7792 20.8024 18.4573C21.2948 10.2959 28.0696 3.82928 36.3548 3.82928C44.96 3.82928 51.9359 10.8052 51.9359 19.4104V19.4106H51.9371V19.4107C51.9371 19.7315 52.022 20.0325 52.1705 20.2925C52.4745 21.1645 53.4048 21.667 54.3112 21.4247L54.3112 21.4249L54.3113 21.4248C62.6233 19.1976 71.167 24.1303 73.3942 32.4423C75.6188 40.7446 70.7003 49.278 62.4059 51.5173L62.3766 51.5249C61.4267 51.7795 60.8629 52.7559 61.1175 53.7058C61.372 54.6557 62.3484 55.2195 63.2983 54.965L63.2984 54.9654L63.2986 54.9654C73.5104 52.2291 79.5706 41.7326 76.8343 31.5207C74.2783 21.9815 64.9507 16.065 55.409 17.5574C54.4769 7.8548 46.302 0.268066 36.3551 0.268066C26.0786 0.268066 17.6934 8.36588 17.2325 18.5286C13.079 18.9993 9.05005 20.8274 5.86452 24.0129C-1.61096 31.4884 -1.61109 43.6084 5.86414 51.0841L5.86428 51.0842C6.55969 51.7796 7.68716 51.7796 8.38257 51.0842C9.07797 50.3888 9.07797 49.2613 8.38257 48.5659L8.38242 48.5658L8.38256 48.5657C2.29813 42.4808 2.29825 32.6157 8.38293 26.531C14.4676 20.4464 24.3327 20.4462 30.4176 26.5307L30.4177 26.5306L30.4182 26.5311C31.1136 27.2265 32.2411 27.2265 32.9365 26.5311C33.6319 25.8357 33.6319 24.7082 32.9365 24.0128C32.9279 24.0042 32.9191 23.9956 32.9103 23.9872Z" fill="black"/>
<path fill-rule="evenodd" clip-rule="evenodd" d="M59.5529 46.6884C59.5529 50.0966 56.9819 52.9043 53.6735 53.2779C53.5573 53.3055 53.4361 53.3201 53.3114 53.3201H30.6856C29.8238 53.3201 29.1252 52.6215 29.1252 51.7597C29.1252 50.8979 29.8238 50.1993 30.6856 50.1993H52.5311V50.1778C52.6592 50.192 52.7894 50.1993 52.9212 50.1993C54.8602 50.1993 56.4321 48.6274 56.4321 46.6884C56.4321 44.7493 54.8602 43.1775 52.9212 43.1775C52.7894 43.1775 52.6592 43.1847 52.5311 43.1989V43.1777C51.6694 43.1776 50.9709 42.479 50.9709 41.6173C50.9709 40.7555 51.6695 40.0569 52.5313 40.0569C52.5734 40.0569 52.6152 40.0585 52.6566 40.0618C52.7444 40.0584 52.8326 40.0566 52.9212 40.0566C56.5838 40.0566 59.5529 43.0258 59.5529 46.6884ZM19.762 45.5187C19.762 44.6569 20.4606 43.9583 21.3224 43.9583H41.6077C42.4694 43.9583 43.1681 44.6569 43.1681 45.5187C43.1681 46.3805 42.4694 47.0791 41.6077 47.0791H21.3224C20.4606 47.0791 19.762 46.3805 19.762 45.5187ZM39.2676 67.3643C39.2676 66.5027 39.9658 65.8043 40.8273 65.8039V65.7823C40.9554 65.7965 41.0855 65.8037 41.2174 65.8037C43.1564 65.8037 44.7283 64.2318 44.7283 62.2928C44.7283 60.3704 43.1833 58.8089 41.2673 58.7822H41.1675C41.0527 58.7838 40.9392 58.791 40.8273 58.8033V58.7822H18.9823C18.1205 58.7822 17.4219 58.0836 17.4219 57.2218C17.4219 56.3601 18.1205 55.6614 18.9823 55.6614H41.1488C41.1716 55.6612 41.1945 55.6611 41.2174 55.6611C41.2403 55.6611 41.2631 55.6612 41.2859 55.6614H41.6082C41.7319 55.6614 41.8523 55.6758 41.9677 55.7031C45.2771 56.0757 47.8491 58.8839 47.8491 62.2928C47.8491 65.9554 44.88 68.9245 41.2174 68.9245C41.1299 68.9245 41.0429 68.9228 40.9563 68.9195C40.914 68.9229 40.8712 68.9247 40.828 68.9247C39.9662 68.9247 39.2676 68.2261 39.2676 67.3643Z" fill="url(#paint0_linear_1803_2639)"/>
<defs>
<linearGradient id="paint0_linear_1803_2639" x1="17.4219" y1="47.0786" x2="38.4878" y2="68.9243" gradientUnits="userSpaceOnUse">
<stop stop-color="#95BFFF"/>
<stop offset="1" stop-color="#5096FF"/>
</linearGradient>
</defs>
</svg>
